PathFileType	4	(X/Y/Z)	./resultDataOpenSim/trcMotMarkerGrf/sub09/qtm-12-05.trc
DataRate	CameraRate	NumFrames	NumMarkers	Units	OrigDataRate	OrigDataStartFrame	OrigNumFrames
250.000000	250.000000	13	24	m	250.000000	237	473
Frame#	Time	L.Toe.Tip			R.Toe.Tip			L.Ankle.Lat			R.Ankle.Lat			L.Ankle.Med			R.Ankle.Med			L.Heel			R.Heel			L.Knee.Lat			R.Knee.Lat			L.Knee.Med			R.Knee.Med			L.Thigh.Upper			R.Thigh.Upper			L.ASIS			R.ASIS			V.Sacral			L.Acromium			R.Acromium			C7			L.Elbow			R.Elbow			L.Wrist.Lat			R.Wrist.Lat
		X1	Y1	Z1	X2	Y2	Z2	X3	Y3	Z3	X4	Y4	Z4	X5	Y5	Z5	X6	Y6	Z6	X7	Y7	Z7	X8	Y8	Z8	X9	Y9	Z9	X10	Y10	Z10	X11	Y11	Z11	X12	Y12	Z12	X13	Y13	Z13	X14	Y14	Z14	X15	Y15	Z15	X16	Y16	Z16	X17	Y17	Z17	X18	Y18	Z18	X19	Y19	Z19	X20	Y20	Z20	X21	Y21	Z21	X22	Y22	Z22	X23	Y23	Z23	X24	Y24	Z24

237	0.944	0.18293919	0.015153812	-0.028940878	0.49450728	0.1005823	0.077491877	0.03859969	0.050078658	-0.081845613	0.34686095	0.11918014	0.093754502	0.051882355	0.071492354	0.015139382	0.37043394	0.15432963	0.0025281107	-0.037622344	0.018867711	-0.041385004	0.2852856	0.095801574	0.036940162	0.14042339	0.45418334	-0.13792234	0.43202218	0.56495264	0.13876129	0.13261175	0.45846741	-0.01337081	0.4389375	0.55189852	0.012198528	0.16849272	0.87760016	-0.19765796	0.18428898	0.88658649	0.17334884	0.25651175	0.96226666	-0.14028822	0.2603713	0.97124993	0.098170097	0.093130875	1.0228819	-0.020413703	0.27536152	1.414108	-0.18193183	0.2336301	1.4289256	0.1451467	0.18716977	1.4729127	-0.026060869	0.15570126	1.0586083	-0.2447655	0.065923725	1.1063844	0.22475145	0.35845667	0.87950756	-0.23693931	0.18489322	0.86170038	0.26223723
238	0.948	0.18303876	0.015181358	-0.029068678	0.51426029	0.10052733	0.07730156	0.038484511	0.05017819	-0.081666755	0.36586788	0.11563271	0.093592512	0.052049778	0.071545456	0.01527794	0.38878407	0.15138931	0.0024046079	-0.037670934	0.019080821	-0.041067558	0.3051795	0.090813277	0.036702308	0.14140962	0.45402748	-0.13815571	0.43867214	0.56451056	0.13847958	0.1334544	0.45833335	-0.013526396	0.44576724	0.55098164	0.011915125	0.17356654	0.87709971	-0.19748036	0.19060709	0.88565496	0.17335971	0.26211463	0.96150068	-0.14064178	0.26665656	0.97033631	0.097983478	0.098990822	1.0220159	-0.020320658	0.28130948	1.4133479	-0.18198539	0.23992603	1.4280416	0.14518072	0.19324181	1.4721119	-0.025928919	0.16219113	1.0573713	-0.24468161	0.072198657	1.1057643	0.22487208	0.36664711	0.8801028	-0.23609933	0.18978091	0.86063452	0.26288545
239	0.952	0.18311382	0.01518711	-0.029186408	0.5339376	0.10068138	0.077202812	0.03837781	0.050284773	-0.081482542	0.38498092	0.11228603	0.093367757	0.052238346	0.071618975	0.015444733	0.40712802	0.14864682	0.0022754233	-0.037715093	0.019320804	-0.040693129	0.32512421	0.086037927	0.036445544	0.14247427	0.45387694	-0.1384054	0.44498822	0.563779	0.13829626	0.13466171	0.4582544	-0.013830401	0.4524476	0.54983114	0.011715968	0.17860171	0.87655659	-0.19740843	0.19693321	0.88464227	0.17338008	0.2676769	0.96069596	-0.14103112	0.27296397	0.96934701	0.097811723	0.10485982	1.0210803	-0.02022635	0.28725923	1.4125327	-0.1820344	0.24622466	1.4271115	0.14522728	0.19931004	1.4712503	-0.025774748	0.16869061	1.0560853	-0.24459378	0.078578854	1.1050856	0.22502	0.37480013	0.88064703	-0.23526846	0.19470189	0.85950845	0.26351599
240	0.956	0.18313992	0.015182772	-0.029262923	0.55354645	0.10104131	0.077178471	0.0383228	0.05037813	-0.081323922	0.40409014	0.10917792	0.093139082	0.052444644	0.071716228	0.015634336	0.42546106	0.14611817	0.0021303258	-0.03772691	0.019577326	-0.040217801	0.34510594	0.081480042	0.036157773	0.14360272	0.45373049	-0.13867282	0.45101042	0.56276083	0.13815495	0.13599272	0.45824636	-0.014204592	0.45890594	0.54846295	0.011626495	0.18361211	0.87596689	-0.19746774	0.20325504	0.88354603	0.17340697	0.27326591	0.95984556	-0.14140136	0.27929022	0.96828835	0.097650668	0.1107445	1.020076	-0.020124362	0.29321212	1.411661	-0.18207094	0.2525245	1.4261381	0.14528532	0.20535356	1.4703415	-0.025569821	0.17519977	1.0547533	-0.24449883	0.084956328	1.1043517	0.22516686	0.38291084	0.88114178	-0.23444351	0.19964633	0.85832642	0.26413104
241	0.96	0.18313759	0.015178969	-0.029308018	0.57305708	0.10160505	0.077210968	0.038382207	0.050432043	-0.081232915	0.42313591	0.1063269	0.092944248	0.052675027	0.071848477	0.015841394	0.44377256	0.14380558	0.0019568751	-0.037682494	0.019838399	-0.039604594	0.36511559	0.077152064	0.035811487	0.14476194	0.45358447	-0.1389658	0.45685771	0.56149506	0.13802116	0.1371228	0.4582647	-0.014493512	0.46510861	0.54691046	0.011649922	0.18858981	0.87530846	-0.19768483	0.20956658	0.88236315	0.17344015	0.27894615	0.95894478	-0.14170261	0.28563156	0.96716144	0.097496159	0.11665425	1.0190037	-0.020007591	0.29917256	1.4107311	-0.18208849	0.25882759	1.4251177	0.14535012	0.21137534	1.4694017	-0.025305221	0.18171476	1.0533773	-0.24439252	0.091308985	1.1035552	0.225309	0.3909832	0.88158939	-0.23362456	0.20460959	0.85708869	0.26472967
242	0.964	0.18313539	0.015173672	-0.029347221	0.59240347	0.10241491	0.077293448	0.038568924	0.050446817	-0.081217416	0.44211923	0.10370614	0.092769501	0.052947551	0.072035757	0.016056807	0.46202514	0.14170328	0.0017590545	-0.037585488	0.020106625	-0.038857556	0.38515528	0.073075339	0.035373498	0.1459318	0.45343356	-0.13929142	0.46264521	0.56004105	0.13793251	0.13805621	0.45820751	-0.014571143	0.47110312	0.54521432	0.011749095	0.19353063	0.87456846	-0.19802149	0.21587136	0.88109733	0.17348565	0.28472549	0.95799563	-0.14193105	0.29198618	0.96596299	0.097347546	0.1226209	1.017876	-0.019806156	0.30514343	1.4097459	-0.18208679	0.26513941	1.4240483	0.14541936	0.21741477	1.4684321	-0.025036559	0.18823362	1.0519555	-0.24427424	0.097659757	1.1026937	0.22545605	0.39902351	0.88198935	-0.2328148	0.20960238	0.85579228	0.26531193
243	0.968	0.18314991	0.015159598	-0.029399153	0.61151926	0.10353613	0.077417954	0.038796124	0.050470325	-0.081206318	0.46106946	0.10126213	0.092571123	0.053284681	0.072296846	0.01627084	0.48016752	0.13981105	0.0015510029	-0.037476124	0.020405685	-0.038031209	0.40522143	0.069276979	0.034826345	0.14712288	0.4532714	-0.13965019	0.46841944	0.55843779	0.13795639	0.13906004	0.45798853	-0.014485846	0.4769706	0.54340208	0.011879411	0.19845776	0.87376903	-0.19834721	0.22218112	0.87976058	0.17355083	0.29057673	0.95700496	-0.14211026	0.29835593	0.96469325	0.097205337	0.12865801	1.0167112	-0.019489209	0.31112416	1.4087119	-0.18206993	0.27146407	1.4229342	0.14549572	0.22353029	1.4674138	-0.024873976	0.19475819	1.0504867	-0.24414655	0.10403326	1.1017711	0.22561516	0.40702867	0.8823327	-0.2320167	0.21463882	0.85443684	0.26587924
244	0.972	0.18318336	0.015135254	-0.029465324	0.63037826	0.104996	0.077538479	0.038953054	0.050558286	-0.081097491	0.47998528	0.098980741	0.092321123	0.053701801	0.072631561	0.016489159	0.49815268	0.13813819	0.0013486488	-0.037399189	0.020762161	-0.037179606	0.42525567	0.065786549	0.034217221	0.1483698	0.45309209	-0.14004046	0.47415766	0.55669002	0.13810032	0.14038589	0.45759769	-0.014417157	0.48275407	0.54147822	0.01201421	0.20340015	0.8729485	-0.19852933	0.22850494	0.8783652	0.17363303	0.29647783	0.95598002	-0.14226018	0.30474585	0.96335967	0.097068304	0.13474113	1.0155152	-0.019106742	0.31711204	1.4076354	-0.18204059	0.27779627	1.4217823	0.14558254	0.22975094	1.4663233	-0.024885679	0.2012912	1.0489769	-0.24401255	0.11044513	1.1007891	0.22578707	0.41498903	0.88260813	-0.23122983	0.21972362	0.85302783	0.26643076
245	0.976	0.18322945	0.015104343	-0.029535197	0.64898596	0.10675716	0.077561007	0.039010038	0.050725125	-0.0808438	0.49880754	0.09692651	0.092033897	0.054199998	0.073013812	0.016733517	0.51593317	0.13669911	0.0011696943	-0.037363463	0.021185458	-0.036308438	0.44512612	0.062624334	0.03367259	0.14971255	0.45289424	-0.14046124	0.47982536	0.55479772	0.13828048	0.14211676	0.45709874	-0.014485083	0.48843985	0.53942874	0.01213478	0.20835759	0.87212352	-0.19852682	0.23484282	0.87691588	0.17371909	0.30241585	0.95492445	-0.14239383	0.3111619	0.96197282	0.096934172	0.14084314	1.0142763	-0.018707645	0.32310635	1.4065189	-0.18199906	0.28412205	1.4205962	0.14567801	0.23603915	1.46515	-0.025011067	0.20783452	1.0474372	-0.24387561	0.11690146	1.0997443	0.22597147	0.42290076	0.8828139	-0.23045238	0.2248653	0.85157271	0.26696402
246	0.98	0.18327999	0.015070096	-0.029597616	0.66733742	0.10874707	0.07739738	0.039002587	0.050953672	-0.08046105	0.51746762	0.095181111	0.091745335	0.054766555	0.07340783	0.017016447	0.53345913	0.13550533	0.0010194127	-0.037343704	0.021673006	-0.035398711	0.46470671	0.059783941	0.033310302	0.15116727	0.45268498	-0.14089931	0.48539521	0.55276316	0.13839326	0.14420303	0.4566092	-0.014681494	0.49399747	0.53723329	0.012220542	0.21330557	0.87128495	-0.19835384	0.24119712	0.87541326	0.17379797	0.30837413	0.95383465	-0.14252545	0.31760833	0.96054181	0.096800083	0.14695914	1.0129772	-0.018300615	0.32910867	1.4053608	-0.18194764	0.29043148	1.4193743	0.14577816	0.24231083	1.4639105	-0.025086654	0.21438809	1.0458748	-0.24373697	0.12339729	1.0986325	0.22617083	0.4307689	0.88295728	-0.22968551	0.23008163	0.85007961	0.26747969
247	0.984	0.18332864	0.015033698	-0.029647807	0.68540168	0.11090634	0.077018779	0.038963179	0.051225969	-0.079992883	0.53592146	0.093755871	0.091476389	0.055373066	0.073792502	0.01732783	0.55069257	0.13455894	0.00088576113	-0.037313808	0.022220772	-0.034456951	0.48397097	0.057237266	0.033160472	0.15270381	0.4524782	-0.14131751	0.49084363	0.55057987	0.13840509	0.14652707	0.45626741	-0.01496526	0.49942047	0.53487879	0.01225645	0.21822471	0.87042223	-0.19801562	0.24757795	0.87385968	0.17386612	0.31433085	0.95270239	-0.14267143	0.32408547	0.95907269	0.096661285	0.15309931	1.0116055	-0.017880186	0.33511895	1.404161	-0.18189175	0.29672609	1.4181131	0.14588402	0.24849396	1.4626472	-0.024950508	0.22094794	1.0442881	-0.24359305	0.12992127	1.0974577	0.22638954	0.43859928	0.88304443	-0.22893532	0.23538074	0.84855839	0.26798124
248	0.988	0.18337172	0.014994967	-0.02968746	0.70313905	0.11320079	0.076451349	0.038908073	0.05153184	-0.079491859	0.55410817	0.092598988	0.091232065	0.055973734	0.074170157	0.017652307	0.5676152	0.13385461	0.00075999836	-0.037268595	0.022822281	-0.033525747	0.50297336	0.054964318	0.033209427	0.15427031	0.45228711	-0.1416681	0.49618673	0.54825123	0.13836171	0.148937	0.45617805	-0.01535455	0.50472743	0.53236464	0.012236902	0.22312439	0.86953615	-0.19754062	0.25399485	0.87226014	0.17392454	0.32026107	0.9515214	-0.1428486	0.33059096	0.95757066	0.096511236	0.15927151	1.0101665	-0.017456718	0.34113622	1.4029249	-0.18183312	0.30301341	1.4168107	0.14600171	0.25458663	1.4613929	-0.024566167	0.22751053	1.0426701	-0.24343956	0.13646296	1.0962285	0.22663204	0.44639217	0.88307651	-0.22820667	0.24075505	0.84701681	0.26847232
249	0.992	0.18340711	0.014953232	-0.029720869	0.72051763	0.1156052	0.075750803	0.038854491	0.051869114	-0.079003467	0.57194875	0.091666506	0.091020089	0.056525529	0.074553347	0.017983654	0.5842164	0.13338017	0.00064682008	-0.037220022	0.023469143	-0.032656853	0.52173955	0.052969896	0.033430112	0.15585284	0.45211812	-0.1419233	0.50147956	0.54580335	0.13831243	0.15135227	0.45633996	-0.01586391	0.50994665	0.52969812	0.012161116	0.22805342	0.8686334	-0.19702388	0.26044993	0.87062352	0.1739755	0.32613481	0.95028791	-0.1430731	0.33712334	0.95604288	0.096344415	0.16547646	1.0086852	-0.017044477	0.34716178	1.4016595	-0.18176711	0.30930665	1.4154673	0.14613591	0.26067335	1.4601406	-0.02409007	0.23407814	1.0410167	-0.24327928	0.14301314	1.0949495	0.22689979	0.45414371	0.88305321	-0.22749803	0.24619261	0.84545818	0.26895757
